<svg width="25" height="24" viewBox="0 0 25 24" fill="none" xmlns="http://www.w3.org/2000/svg">
<path d="M14.2449 19.0299C14.4439 18.3532 14.6827 17.6667 14.9613 16.9701C15.2399 16.2736 15.5782 15.6368 15.9762 15.0597C16.3941 14.4627 16.8817 14.005 17.4389 13.6866V13.5672L3.9165 13.9254V10.0746L17.4389 10.4627V10.3433C16.8618 9.92537 16.3543 9.42786 15.9165 8.85075C15.4787 8.27363 15.1105 7.65672 14.812 7C14.5334 6.32338 14.2847 5.65672 14.0658 5H18.424C18.6031 5.85572 18.8419 6.67164 19.1404 7.44776C19.4588 8.22388 19.8469 8.91045 20.3046 9.50746C20.7623 10.0846 21.2996 10.5224 21.9165 10.8209V13.1791C21.0011 13.6368 20.2648 14.393 19.7075 15.4478C19.1503 16.4826 18.7225 17.6766 18.424 19.0299H14.2449Z" fill="black"/>
</svg>
